#N canvas -3 4 1910 1020 10;
#X msg 339 90 close;
#X msg 339 42 devices;
#X floatatom 399 66 5 0 0 0 - - - 0;
#X msg 399 90 open \$1;
#X msg 487 42 0;
#X obj 339 241 comport 1 115200;
#X obj 339 289 serial_print any;
#X obj 264 491 unpack f;
#X floatatom 264 539 5 0 0 0 - - - 0;
#X obj 339 491 unpack f;
#X floatatom 339 539 5 0 0 0 - - - 0;
#X floatatom 485 539 5 0 0 0 - - - 0;
#X obj 485 491 unpack f f f;
#X floatatom 521 539 5 0 0 0 - - - 0;
#X floatatom 559 539 5 0 0 0 - - - 0;
#X obj 339 337 list prepend;
#X obj 339 385 list trim;
#X obj 408 494 unpack f;
#X floatatom 408 542 5 0 0 0 - - - 0;
#X obj 615 491 unpack f;
#X floatatom 615 539 5 0 0 0 - - - 0;
#X obj 762 491 unpack f;
#X floatatom 762 539 5 0 0 0 - - - 0;
#X obj 926 490 s down_detected;
#X obj 836 490 s up_detected;
#X text 351 515 y;
#X obj 419 662 s swing_position;
#X obj 1310 34 cnv 16 1350 600 empty empty Swing\ Sound 20 12 0 16 #c6ffc7 #404040 0;
#X obj 1406 213 bang;
#X obj 1431 362 vsl 15 128 0 30 0 0 empty empty empty 0 -9 0 10 #fcfcfc #000000 #000000 0 1;
#X obj 1426 523 line~;
#X floatatom 1490 499 0 0 0 0 - - - 0;
#X obj 1426 573 s~ mySpeed;
#X obj 1427 339 line;
#X msg 1425 500 \$1 100;
#X obj 1449 90 r up_detected;
#X obj 1449 138 unpack;
#X obj 1539 90 r down_detected;
#X obj 1539 138 unpack;
#X obj 1492 213 bang;
#X obj 1494 279 0 100;
#X obj 1537 279 s volume_up;
#X obj 1342 282 s volume_up;
#X obj 1423 281 30 100;
#X obj 1588 315 r swing_position;
#X text 1548 183 This can be used with just up and down;
#X text 1497 369 otherwise getting the full position \, however the sound persist when kept up;
#X text 929 432 Unpack the Serial Data;
#X obj 22 33 cnv 16 185 48 empty empty ClubTrainer 16 24 0 24 #ff8300 #404040 0;
#X obj 95 808 packOSC;
#X obj 93 949 netsend -u -b;
#X obj 144 874 loadbang;
#X obj 96 844 cyclone/prepend send;
#X msg 144 895 connect 127.0.0.1 32000;
#X msg 96 773 /roll \$1;
#X msg 209 772 /pitch \$1;
#X msg 336 773 /yaw \$1;
#X msg 421 776 /launch_angle \$1;
#X msg 399 43 7;
#X text 273 520 x;
#X text 416 518 z;
#X obj 339 433 route Roll Pitch Yaw Accel VerticalVelocity SwingPower UP DOWN HIT, f 95;
#X obj 593 670 spigot;
#X obj 653 619 r aaa;
#X obj 681 681 print;
#X floatatom 537 665 5 0 0 0 - - - 0;
#X obj 1586 345 cyclone/scale -50 -150 0 30;
#X obj 500 611 clip -150 -50;
#X text 589 598 COntrollare clip;
#X obj 2391 455 *~ 1;
#X obj 2390 486 dac~;
#X obj 2365 226 vsl 15 128 0.01 100 0 0 empty empty Add._Gain 0 -9 0 10 #fcfcfc #000000 #000000 0 1;
#X obj 1885 328 vsl 15 128 0.0001 0.03 0 0 empty empty empty 0 -9 0 10 #fcfcfc #000000 #000000 0 1;
#X obj 1885 491 s myDiameter;
#X obj 2547 204 r~ myFreq;
#X obj 2467 325 *~;
#X floatatom 2339 377 5 0 0 0 - - - 0;
#X obj 2467 373 *~;
#X obj 2527 325 r~ mySpGain;
#X obj 2527 277 r~ myAngleGain;
#X obj 2466 419 /~;
#X obj 2527 382 r~ myDistanceGain;
#N canvas 107 106 751 389 Angle 0;
#X obj 89 161 /~ 360;
#X obj 89 211 cos~;
#X obj 92 89 hsl 128 15 -180 180 0 0 empty empty Angle -2 -8 0 10 #fcfcfc #000000 #000000 0 1;
#X obj 89 137 line~;
#X msg 89 111 \$1 50;
#X obj 188 115 r myMet;
#X obj 188 140 snapshot~;
#X floatatom 188 164 0 0 0 0 - - - 0;
#X obj 226 208 r myMet;
#X obj 226 233 snapshot~;
#X floatatom 226 257 0 0 0 0 - - - 0;
#X obj 89 261 s~ myAngleGain;
#X obj 89 54 inlet;
#X obj 89 185 +~ 0.25;
#X obj 89 235 *~;
#X text 287 48 The sound source for this type of aeroacoustic sound is a dipole. This is created by multiplying the gain by sin squared of the elevation angle.;
#X connect 0 0 13 0;
#X connect 1 0 14 0;
#X connect 1 0 14 1;
#X connect 2 0 4 0;
#X connect 3 0 6 0;
#X connect 3 0 0 0;
#X connect 4 0 3 0;
#X connect 5 0 6 0;
#X connect 6 0 7 0;
#X connect 8 0 9 0;
#X connect 9 0 10 0;
#X connect 12 0 2 0;
#X connect 13 0 1 0;
#X connect 14 0 9 0;
#X connect 14 0 11 0;
#X restore 2013 229 pd Angle;
#X obj 2016 182 hsl 128 15 -180 180 0 0 empty empty Angle -2 -8 0 10 #fcfcfc #000000 #000000 0 1;
#X floatatom 2013 207 0 0 0 0 - - - 0;
#X obj 1880 271 loadbang;
#X obj 2466 277 vcf~ 70;
#X obj 2467 277 vcf~ 70;
#N canvas 304 63 706 441 FreqCalc 0;
#X obj 105 20 r~ mySpeed;
#X obj 105 44 *~ 0.189;
#X obj 199 17 r myDiameter;
#X obj 105 134 s~ myFreq;
#X text 35 227 Frequency of aeroacoustic tone calculated using a Strouhal number of 0.189. Frequency is depended on speed and diameter;
#X msg 199 41 \$1 20;
#X obj 199 65 line~;
#X obj 105 110 /~;
#X connect 0 0 1 0;
#X connect 1 0 7 0;
#X connect 2 0 5 0;
#X connect 5 0 6 0;
#X connect 6 0 7 1;
#X connect 7 0 3 0;
#X restore 1885 182 pd FreqCalc;
#N canvas 409 116 490 365 SpeedGain 0;
#X obj 53 42 r~ mySpeed;
#X obj 89 78 *~;
#X obj 126 78 *~;
#X obj 53 79 *~;
#X obj 53 106 *~;
#X obj 53 133 *~;
#X obj 51 183 s~ mySpGain;
#X obj 52 159 /~ 7.3e+08;
#X text 45 263 The gain of the aeroacoustic sound is proportional to the 6th power of the speed;
#X text 132 158 Normalised for a max speed of 30 m/s;
#X connect 0 0 1 0;
#X connect 0 0 1 1;
#X connect 0 0 2 0;
#X connect 0 0 2 1;
#X connect 0 0 3 1;
#X connect 0 0 3 0;
#X connect 1 0 4 1;
#X connect 2 0 5 1;
#X connect 3 0 4 0;
#X connect 4 0 5 0;
#X connect 5 0 7 0;
#X connect 7 0 6 0;
#X restore 1885 230 pd SpeedGain;
#N canvas 1434 48 473 717 DistGain 0;
#X obj 51 125 line~;
#X msg 51 99 \$1 50;
#X obj 51 149 *~;
#X obj 51 176 s~ myDistanceGain;
#X text 42 227 The gain of the aeroacoustic sound is proportional to the inverse square of the distance;
#X obj 51 74 r myDist;
#X connect 0 0 2 0;
#X connect 0 0 2 1;
#X connect 1 0 0 0;
#X connect 2 0 3 0;
#X connect 5 0 1 0;
#X restore 1885 134 pd DistGain;
#X text 2275 515 The actual sound effect with parameters derived from physics;
#X text 2097 410 Control the speed of the sound source;
#X text 2098 133 Control the angle of the sound source;
#X text 1914 357 Control the diameter of the sound source;
#X obj 2068 433 hsl 128 15 1 10 0 0 empty empty empty -2 -8 0 10 #fcfcfc #000000 #000000 0 1;
#X msg 2065 412 3;
#X obj 2065 385 loadbang;
#X obj 2065 479 s myDist;
#X floatatom 2099 460 0 0 0 0 - - - 0;
#X floatatom 1928 452 0 0 0 0 - - - 0;
#X text 2120 450 Speed in metres per second;
#X text 2126 393 Distance in metres;
#X text 1928 406 Diameter in metres;
#X text 2088 206 Angle in degrees;
#X obj 2465 204 noise~;
#X obj 1982 134 loadbang;
#X msg 1982 182 90;
#X obj 2363 114 loadbang;
#X text 2240 277 Additional Gain;
#X msg 2363 162 100;
#X msg 1882 301 0.01;
#X obj 1309 667 cnv 16 1200 550 empty empty Ball\ Sound 20 12 0 16 #ffe3c6 #404040 0;
#X obj 929 562 s hit_detected;
#X obj 1597 1181 dac~;
#X msg 2214 726 Sound Design Toolkit \; (C) 2001 - 2016 \; \; Project SOb - soundobject.org \; Project CLOSED - closed.ircam.fr \; Project NIW - soundobject.org/niw \; Project SkAT-VG - skatvg.eu;
#X obj 2232 858 r pd;
#X obj 2232 885 route dsp;
#X obj 2232 910 select 1;
#X obj 2293 910 loadbang;
#X msg 1402 988 stiffness \$1;
#X msg 1537 987 dissipation \$1;
#X obj 1677 828 vsl 15 128 1 4 0 0 empty shape empty 0 -9 0 10 #fcfcfc #000000 #000000 0 1;
#X obj 1537 828 vsl 15 128 0 40 0 0 empty dissipation empty 0 -9 0 10 #fcfcfc #000000 #000000 0 1;
#X obj 1402 830 vsl 15 128 1000 1e+08 1 0 empty stiffness empty 0 -9 0 10 #fcfcfc #000000 #000000 0 1;
#X floatatom 1402 968 10 0 0 0 - - - 0;
#X floatatom 1537 966 5 0 0 0 - - - 0;
#X floatatom 1677 966 5 0 0 0 - - - 0;
#X text 1614 1037 Args: 1st obj ID \, 2nd obj ID \, n. of outlets;
#X text 1927 919 Args: object ID;
#X text 1935 984 Args: object ID \, n. of modes \, n. of pickups;
#X obj 1402 1036 impact~ hammerimp objectimp 2;
#X text 1360 807 Impact stiffness;
#X text 1490 806 Impact dissipation;
#X msg 1677 987 shape \$1;
#X obj 1846 892 r hammerimp;
#X obj 1783 959 r objectimp;
#X obj 1782 919 inertial hammerimp;
#X obj 1783 984 modal objectimp 3 1;
#X obj 1363 1012 r imp;
#X msg 1782 866 strike 0 -3;
#X obj 1936 834 bng 32 250 50 0 empty empty empty 17 7 0 10 #fcfcfc #000000 #000000;
#X text 1645 806 Contact shape;
#X text 1780 807 Strike!;
#X obj 1597 1150 *~ 1000;
#X obj 1636 1066 vsl 30 60 100 10000 0 0 empty empty empty 0 -9 0 10 #fcfcfc #000000 #000000 0 1;
#X msg 2232 936 \; hammerimp mass 0.01 \; hammerimp fragmentSize 1 \; objectimp freqs 500 1300 1700 \; objectimp decays 1 0.5 0.25 \; objectimp pickup 0 100 100 100 \; objectimp activeModes 3 \; objectimp fragmentSize 1 \; imp contact0 0 \; imp contact1 0 \; stiffness 480000 \; dissipation 29 \; shape 2.7 \;;
#X obj 1782 834 r hit_detected;
#X text 1935 816 debug button;
#X obj 1590 137 bng 32 250 50 0 empty empty empty 17 7 0 10 #fcfcfc #000000 #000000;
#X text 1589 119 debug button;
#X obj 1396 138 bng 32 250 50 0 empty empty empty 17 7 0 10 #fcfcfc #000000 #000000;
#X text 1395 120 debug button;
#X connect 0 0 5 0;
#X connect 1 0 5 0;
#X connect 2 0 3 0;
#X connect 3 0 5 0;
#X connect 4 0 5 0;
#X connect 5 0 6 0;
#X connect 6 0 15 0;
#X connect 6 1 15 1;
#X connect 7 0 8 0;
#X connect 8 0 54 0;
#X connect 8 0 62 0;
#X connect 9 0 10 0;
#X connect 10 0 55 0;
#X connect 12 0 11 0;
#X connect 12 1 13 0;
#X connect 12 2 14 0;
#X connect 15 0 16 0;
#X connect 16 0 61 0;
#X connect 17 0 18 0;
#X connect 18 0 56 0;
#X connect 18 0 67 0;
#X connect 19 0 20 0;
#X connect 21 0 22 0;
#X connect 28 0 42 0;
#X connect 28 0 43 0;
#X connect 29 0 34 0;
#X connect 29 0 31 0;
#X connect 30 0 32 0;
#X connect 33 0 29 0;
#X connect 34 0 30 0;
#X connect 35 0 36 0;
#X connect 36 0 28 0;
#X connect 37 0 38 0;
#X connect 38 0 39 0;
#X connect 39 0 40 0;
#X connect 39 0 41 0;
#X connect 40 0 33 0;
#X connect 43 0 33 0;
#X connect 44 0 66 0;
#X connect 49 0 52 0;
#X connect 51 0 53 0;
#X connect 52 0 50 0;
#X connect 53 0 50 0;
#X connect 54 0 49 0;
#X connect 55 0 49 0;
#X connect 56 0 49 0;
#X connect 57 0 49 0;
#X connect 58 0 2 0;
#X connect 61 0 7 0;
#X connect 61 1 9 0;
#X connect 61 2 17 0;
#X connect 61 3 12 0;
#X connect 61 4 19 0;
#X connect 61 5 21 0;
#X connect 61 6 24 0;
#X connect 61 7 23 0;
#X connect 61 8 113 0;
#X connect 62 0 57 0;
#X connect 63 0 62 1;
#X connect 63 0 64 0;
#X connect 66 0 29 0;
#X connect 67 0 26 0;
#X connect 67 0 65 0;
#X connect 69 0 70 0;
#X connect 69 0 70 1;
#X connect 71 0 69 1;
#X connect 71 0 76 0;
#X connect 72 0 73 0;
#X connect 72 0 100 0;
#X connect 74 0 86 1;
#X connect 74 0 87 1;
#X connect 75 0 77 0;
#X connect 77 0 80 0;
#X connect 78 0 77 1;
#X connect 79 0 75 1;
#X connect 80 0 69 0;
#X connect 81 0 80 1;
#X connect 83 0 84 0;
#X connect 84 0 82 0;
#X connect 85 0 111 0;
#X connect 86 0 87 0;
#X connect 87 0 75 0;
#X connect 95 0 98 0;
#X connect 95 0 99 0;
#X connect 96 0 95 0;
#X connect 97 0 96 0;
#X connect 105 0 86 0;
#X connect 106 0 107 0;
#X connect 107 0 83 0;
#X connect 108 0 110 0;
#X connect 110 0 71 0;
#X connect 111 0 72 0;
#X connect 116 0 117 0;
#X connect 117 0 118 0;
#X connect 118 0 146 0;
#X connect 119 0 146 0;
#X connect 120 0 131 0;
#X connect 121 0 131 0;
#X connect 122 0 127 0;
#X connect 123 0 126 0;
#X connect 124 0 125 0;
#X connect 125 0 120 0;
#X connect 126 0 121 0;
#X connect 127 0 134 0;
#X connect 131 1 144 0;
#X connect 134 0 131 0;
#X connect 135 0 137 0;
#X connect 136 0 138 0;
#X connect 139 0 131 0;
#X connect 140 0 137 0;
#X connect 141 0 140 0;
#X connect 144 0 114 0;
#X connect 144 0 114 1;
#X connect 145 0 144 1;
#X connect 147 0 140 0;
#X connect 149 0 39 0;
#X connect 151 0 28 0;
