#N canvas 953 0 958 1028 10;
#X obj 1825 1017 *~ 1;
#X obj 1824 1048 dac~;
#X obj 1799 788 vsl 15 128 0.01 100 0 0 empty empty Add._Gain 0 -9 0 10 #fcfcfc #000000 #000000 0 1;
#X obj 1319 890 vsl 15 128 0.0001 0.03 0 0 empty empty empty 0 -9 0 10 #fcfcfc #000000 #000000 0 1;
#X obj 1319 1053 s myDiameter;
#X obj 1981 766 r~ myFreq;
#X obj 1901 887 *~;
#X floatatom 1773 939 5 0 0 0 - - - 0;
#X obj 1901 935 *~;
#X obj 1961 887 r~ mySpGain;
#X obj 1961 839 r~ myAngleGain;
#X obj 1900 981 /~;
#X obj 1961 944 r~ myDistanceGain;
#N canvas 107 106 751 389 Angle 0;
#X obj 89 161 /~ 360;
#X obj 89 211 cos~;
#X obj 92 89 hsl 128 15 -180 180 0 0 empty empty Angle -2 -8 0 10 #fcfcfc #000000 #000000 0 1;
#X obj 89 137 line~;
#X msg 89 111 \$1 50;
#X obj 188 115 r myMet;
#X obj 188 140 snapshot~;
#X floatatom 188 164 0 0 0 0 - - - 0;
#X obj 226 208 r myMet;
#X obj 226 233 snapshot~;
#X floatatom 226 257 0 0 0 0 - - - 0;
#X obj 89 261 s~ myAngleGain;
#X obj 89 54 inlet;
#X obj 89 185 +~ 0.25;
#X obj 89 235 *~;
#X text 287 48 The sound source for this type of aeroacoustic sound is a dipole. This is created by multiplying the gain by sin squared of the elevation angle.;
#X connect 0 0 13 0;
#X connect 1 0 14 0;
#X connect 1 0 14 1;
#X connect 2 0 4 0;
#X connect 3 0 6 0;
#X connect 3 0 0 0;
#X connect 4 0 3 0;
#X connect 5 0 6 0;
#X connect 6 0 7 0;
#X connect 8 0 9 0;
#X connect 9 0 10 0;
#X connect 12 0 2 0;
#X connect 13 0 1 0;
#X connect 14 0 9 0;
#X connect 14 0 11 0;
#X restore 1447 791 pd Angle;
#X obj 1450 744 hsl 128 15 -180 180 0 0 empty empty Angle -2 -8 0 10 #fcfcfc #000000 #000000 0 1;
#X floatatom 1447 769 0 0 0 0 - - - 0;
#X obj 1314 833 loadbang;
#X obj 1900 839 vcf~ 70;
#X obj 1901 839 vcf~ 70;
#N canvas 304 63 706 441 FreqCalc 0;
#X obj 105 20 r~ mySpeed;
#X obj 105 44 *~ 0.189;
#X obj 199 17 r myDiameter;
#X obj 105 134 s~ myFreq;
#X text 35 227 Frequency of aeroacoustic tone calculated using a Strouhal number of 0.189. Frequency is depended on speed and diameter;
#X msg 199 41 \$1 20;
#X obj 199 65 line~;
#X obj 105 110 /~;
#X connect 0 0 1 0;
#X connect 1 0 7 0;
#X connect 2 0 5 0;
#X connect 5 0 6 0;
#X connect 6 0 7 1;
#X connect 7 0 3 0;
#X restore 1319 744 pd FreqCalc;
#N canvas 409 116 490 365 SpeedGain 0;
#X obj 53 42 r~ mySpeed;
#X obj 89 78 *~;
#X obj 126 78 *~;
#X obj 53 79 *~;
#X obj 53 106 *~;
#X obj 53 133 *~;
#X obj 51 183 s~ mySpGain;
#X obj 52 159 /~ 7.3e+08;
#X text 45 263 The gain of the aeroacoustic sound is proportional to the 6th power of the speed;
#X text 132 158 Normalised for a max speed of 30 m/s;
#X connect 0 0 1 0;
#X connect 0 0 1 1;
#X connect 0 0 2 0;
#X connect 0 0 2 1;
#X connect 0 0 3 1;
#X connect 0 0 3 0;
#X connect 1 0 4 1;
#X connect 2 0 5 1;
#X connect 3 0 4 0;
#X connect 4 0 5 0;
#X connect 5 0 7 0;
#X connect 7 0 6 0;
#X restore 1319 792 pd SpeedGain;
#N canvas 1434 48 473 717 DistGain 0;
#X obj 51 125 line~;
#X msg 51 99 \$1 50;
#X obj 51 149 *~;
#X obj 51 176 s~ myDistanceGain;
#X text 42 227 The gain of the aeroacoustic sound is proportional to the inverse square of the distance;
#X obj 51 74 r myDist;
#X connect 0 0 2 0;
#X connect 0 0 2 1;
#X connect 1 0 0 0;
#X connect 2 0 3 0;
#X connect 5 0 1 0;
#X restore 1319 696 pd DistGain;
#X text 1709 1077 The actual sound effect with parameters derived from physics;
#X text 1531 972 Control the speed of the sound source;
#X text 1532 695 Control the angle of the sound source;
#X text 1348 919 Control the diameter of the sound source;
#X obj 1502 995 hsl 128 15 1 10 0 0 empty empty empty -2 -8 0 10 #fcfcfc #000000 #000000 0 1;
#X msg 1499 974 3;
#X obj 1499 947 loadbang;
#X obj 1499 1041 s myDist;
#X floatatom 1533 1022 0 0 0 0 - - - 0;
#X floatatom 1362 1014 0 0 0 0 - - - 0;
#X text 1554 1012 Speed in metres per second;
#X text 1560 955 Distance in metres;
#X text 1362 968 Diameter in metres;
#X text 1522 768 Angle in degrees;
#X obj 1899 766 noise~;
#X obj 1416 696 loadbang;
#X msg 1416 744 90;
#X obj 1797 676 loadbang;
#X text 1674 839 Additional Gain;
#X msg 339 90 close;
#X msg 339 42 devices;
#X floatatom 399 66 5 0 0 0 - - - 0;
#X msg 399 90 open \$1;
#X msg 487 42 0;
#X obj 339 241 comport 1 115200;
#X obj 339 289 serial_print any;
#X obj 264 491 unpack f;
#X floatatom 264 539 5 0 0 0 - - - 0;
#X obj 339 491 unpack f;
#X floatatom 339 539 5 0 0 0 - - - 0;
#X floatatom 485 539 5 0 0 0 - - - 0;
#X obj 485 491 unpack f f f;
#X floatatom 521 539 5 0 0 0 - - - 0;
#X floatatom 559 539 5 0 0 0 - - - 0;
#X obj 339 337 list prepend;
#X obj 339 385 list trim;
#X obj 408 494 unpack f;
#X floatatom 408 542 5 0 0 0 - - - 0;
#X obj 615 491 unpack f;
#X floatatom 615 539 5 0 0 0 - - - 0;
#X obj 762 491 unpack f;
#X floatatom 762 539 5 0 0 0 - - - 0;
#X obj 926 490 s down_detected;
#X obj 836 490 s up_detected;
#X msg 1797 724 100;
#X msg 1316 863 0.01;
#X text 351 515 y;
#X obj 419 662 s swing_position;
#X obj 1310 34 cnv 16 480 600 empty empty Swing\ Sound 20 12 0 10 #c6ffc7 #404040 0;
#X obj 1407 191 bang;
#X obj 1432 340 vsl 15 128 0 30 0 0 empty empty empty 0 -9 0 10 #fcfcfc #000000 #000000 0 1;
#X obj 1427 501 line~;
#X floatatom 1491 477 0 0 0 0 - - - 0;
#X obj 1427 551 s~ mySpeed;
#X obj 1428 317 line;
#X msg 1426 478 \$1 100;
#X obj 1450 68 r up_detected;
#X obj 1450 116 unpack;
#X obj 1540 68 r down_detected;
#X obj 1540 116 unpack;
#X obj 1493 191 bang;
#X obj 1495 257 0 100;
#X obj 1538 257 s volume_up;
#X obj 1343 260 s volume_up;
#X obj 1424 259 30 100;
#X obj 1589 293 r swing_position;
#X text 1549 161 This can be used with just up and down;
#X text 1498 347 otherwise getting the full position \, however the sound persist when kept up;
#X text 929 432 Unpack the Serial Data;
#X obj 22 33 cnv 16 185 48 empty empty ClubTrainer 16 24 0 24 #ff8300 #404040 0;
#X obj 95 808 packOSC;
#X obj 93 949 netsend -u -b;
#X obj 144 874 loadbang;
#X obj 96 844 cyclone/prepend send;
#X msg 144 895 connect 127.0.0.1 32000;
#X msg 96 773 /roll \$1;
#X msg 209 772 /pitch \$1;
#X msg 336 773 /yaw \$1;
#X msg 421 776 /launch_angle \$1;
#X msg 399 43 7;
#X text 273 520 x;
#X text 416 518 z;
#X obj 339 433 route Roll Pitch Yaw Accel VerticalVelocity SwingPower UP DOWN HIT, f 95;
#X obj 593 670 spigot;
#X obj 929 562 s aaa;
#X obj 653 619 r aaa;
#X obj 681 681 print;
#X floatatom 537 665 5 0 0 0 - - - 0;
#X obj 1587 323 cyclone/scale -50 -150 0 30;
#X obj 500 611 clip -150 -50;
#X text 589 598 COntrollare clip;
#X connect 0 0 1 0;
#X connect 0 0 1 1;
#X connect 2 0 0 1;
#X connect 2 0 7 0;
#X connect 3 0 4 0;
#X connect 3 0 31 0;
#X connect 5 0 17 1;
#X connect 5 0 18 1;
#X connect 6 0 8 0;
#X connect 8 0 11 0;
#X connect 9 0 8 1;
#X connect 10 0 6 1;
#X connect 11 0 0 0;
#X connect 12 0 11 1;
#X connect 14 0 15 0;
#X connect 15 0 13 0;
#X connect 16 0 67 0;
#X connect 17 0 18 0;
#X connect 18 0 6 0;
#X connect 26 0 29 0;
#X connect 26 0 30 0;
#X connect 27 0 26 0;
#X connect 28 0 27 0;
#X connect 36 0 17 0;
#X connect 37 0 38 0;
#X connect 38 0 14 0;
#X connect 39 0 66 0;
#X connect 41 0 46 0;
#X connect 42 0 46 0;
#X connect 43 0 44 0;
#X connect 44 0 46 0;
#X connect 45 0 46 0;
#X connect 46 0 47 0;
#X connect 47 0 56 0;
#X connect 47 1 56 1;
#X connect 48 0 49 0;
#X connect 49 0 97 0;
#X connect 49 0 105 0;
#X connect 50 0 51 0;
#X connect 51 0 98 0;
#X connect 53 0 52 0;
#X connect 53 1 54 0;
#X connect 53 2 55 0;
#X connect 56 0 57 0;
#X connect 57 0 104 0;
#X connect 58 0 59 0;
#X connect 59 0 99 0;
#X connect 59 0 111 0;
#X connect 60 0 61 0;
#X connect 62 0 63 0;
#X connect 66 0 2 0;
#X connect 67 0 3 0;
#X connect 71 0 85 0;
#X connect 71 0 86 0;
#X connect 72 0 77 0;
#X connect 72 0 74 0;
#X connect 73 0 75 0;
#X connect 76 0 72 0;
#X connect 77 0 73 0;
#X connect 78 0 79 0;
#X connect 79 0 71 0;
#X connect 80 0 81 0;
#X connect 81 0 82 0;
#X connect 82 0 83 0;
#X connect 82 0 84 0;
#X connect 83 0 76 0;
#X connect 86 0 76 0;
#X connect 87 0 110 0;
#X connect 92 0 95 0;
#X connect 94 0 96 0;
#X connect 95 0 93 0;
#X connect 96 0 93 0;
#X connect 97 0 92 0;
#X connect 98 0 92 0;
#X connect 99 0 92 0;
#X connect 100 0 92 0;
#X connect 101 0 43 0;
#X connect 104 0 48 0;
#X connect 104 1 50 0;
#X connect 104 2 58 0;
#X connect 104 3 53 0;
#X connect 104 4 60 0;
#X connect 104 5 62 0;
#X connect 104 6 65 0;
#X connect 104 7 64 0;
#X connect 104 8 106 0;
#X connect 105 0 100 0;
#X connect 107 0 105 1;
#X connect 107 0 108 0;
#X connect 110 0 72 0;
#X connect 111 0 69 0;
#X connect 111 0 109 0;
